<?xml version="1.0" encoding="UTF-8"?>
<svg version="1.1" xmlns="http://www.w3.org/2000/svg" width="728" height="622">
<path d="M0 0 C1.11442724 -0.00406073 2.22885448 -0.00812145 3.37705225 -0.01230523 C7.10805128 -0.02224395 10.83867346 -0.01082692 14.569664 0.00050831 C17.27292242 -0.00223252 19.97615554 -0.00616071 22.6794076 -0.01153535 C28.55511533 -0.02081751 34.43073746 -0.01898373 40.30644417 -0.00980282 C49.04387204 0.00381202 57.78123431 0.00022663 66.51866697 -0.00676142 C82.12446196 -0.01868403 97.73021655 -0.0136058 113.33600931 -0.00148315 C126.99290237 0.00905336 140.64978167 0.0135923 154.30667877 0.01222134 C155.21259727 0.01213731 156.11851577 0.01205328 157.05188634 0.0119667 C160.72931128 0.01161445 164.40673621 0.01123044 168.08416114 0.01080112 C202.58073392 0.00683612 237.07728235 0.01955369 271.57384817 0.04032768 C302.22150744 0.0586971 332.86914337 0.06450993 363.51680756 0.05905628 C365.48468719 0.05870985 367.45256682 0.05836375 369.42044646 0.05801799 C370.39332911 0.057847 371.36621176 0.057676 372.3685757 0.05749982 C377.26595028 0.05664628 382.16332487 0.05582249 387.06069946 0.05503082 C388.0268787 0.05487374 388.99305793 0.05471666 389.98851532 0.05455482 C415.5981147 0.05056473 441.20771184 0.05604041 466.81730986 0.06454211 C469.57296252 0.06544915 472.32861518 0.0663548 475.08426784 0.06725735 C476.9122909 0.06785846 478.74031396 0.06846708 480.56833701 0.06908325 C493.31227428 0.07330459 506.05620713 0.0738829 518.80014487 0.07197776 C535.2232428 0.06953484 551.64631707 0.07360614 568.06940854 0.08918776 C576.75454862 0.09723798 585.43964931 0.09983955 594.12479174 0.09454541 C599.92647758 0.09156816 605.72812862 0.09587109 611.52980614 0.10609398 C614.83510933 0.1117192 618.14031645 0.11313042 621.44562274 0.1079274 C625.00921408 0.10282638 628.57257869 0.11000124 632.13615417 0.12025452 C633.66873065 0.11365979 633.66873065 0.11365979 635.23226827 0.10693184 C647.43023119 0.17389173 658.45757572 2.4458204 667.75557709 10.81223011 C676.46054495 20.08337475 679.7235296 31.16163718 679.70229816 43.53317928 C679.70465039 44.4625701 679.70700262 45.39196091 679.70942613 46.34951508 C679.71611249 49.48107018 679.71565802 52.61258375 679.71524811 55.74414539 C679.71854695 58.00513709 679.72227256 60.26612821 679.72638959 62.52711856 C679.73641524 68.75404997 679.74012729 74.98097173 679.7427789 81.20791006 C679.74627979 87.22963245 679.75442688 93.25134754 679.76232283 99.27306534 C679.78316263 115.40720204 679.79363611 131.54134057 679.80245244 147.6754876 C679.80665942 155.30817882 679.81188133 162.94086925 679.81713697 170.5735598 C679.83502633 196.70156714 679.85002252 222.8295747 679.85745716 248.95758724 C679.85793192 250.59776481 679.85840781 252.23794237 679.85888482 253.87811994 C679.85923939 255.09818741 679.85923939 255.09818741 679.85960111 256.34290271 C679.86080231 260.46386341 679.86201776 264.5848241 679.8632431 268.7057848 C679.86348325 269.52360066 679.8637234 270.34141651 679.86397083 271.18401467 C679.87186425 297.70122664 679.89529739 324.2183939 679.92779905 350.73558634 C679.96209972 378.77173116 679.98180849 406.80784981 679.9851014 434.84401596 C679.98551894 437.92196108 679.9859985 440.99990619 679.98652458 444.0778513 C679.98664777 444.83572675 679.98677097 445.59360221 679.98689789 446.3744436 C679.98922954 458.56864104 680.00488748 470.76278652 680.02536643 482.95696545 C680.04562595 495.21499199 680.05110112 507.47295614 680.04159579 519.73099633 C680.03684016 526.37126628 680.03899019 533.01140321 680.05835724 539.65165997 C680.07593646 545.73138863 680.07503349 551.81082489 680.05945995 557.89055644 C680.05707595 560.08911121 680.06144829 562.28768595 680.0732886 564.48621012 C680.17988137 585.58673629 680.17988137 585.58673629 675.56807709 594.37473011 C675.1128611 595.27150663 674.65764511 596.16828316 674.18863469 597.09223473 C668.50487755 607.82483077 659.99470156 613.74381224 648.56807709 617.37473011 C644.61513858 618.00021851 640.77433861 618.04607954 636.77794361 617.99834919 C635.0846639 618.00835121 635.0846639 618.00835121 633.35717651 618.01855528 C629.58892843 618.03474832 625.82172602 618.01544271 622.05350494 617.99619007 C619.31892765 617.99774369 616.58438672 618.00683119 613.84982413 618.01555014 C607.91187287 618.03049247 601.97415864 618.02695615 596.03621292 618.01113224 C587.2063592 617.98766669 578.37668329 617.99292679 569.54681347 618.00384114 C553.77589412 618.02241186 538.00508787 618.01272886 522.23417777 617.9913635 C508.4346128 617.97280097 494.63508581 617.96438525 480.83550835 617.96593189 C479.91987778 617.96602357 479.00424721 617.96611524 478.06087026 617.9662097 C474.34398808 617.96660286 470.62710591 617.96705248 466.91022375 617.96758109 C432.05191381 617.97245093 397.19367124 617.94979748 362.33538224 617.91362486 C331.36516307 617.88162412 300.39500142 617.86958272 269.42476654 617.87570667 C267.43572638 617.87609352 265.44668621 617.87647997 263.45764605 617.87686604 C261.9826298 617.87715306 261.9826298 617.87715306 260.47781524 617.87744588 C255.52779649 617.87840022 250.57777774 617.87931458 245.62775898 617.88018513 C244.16291454 617.88044582 244.16291454 617.88044582 242.66847729 617.88071178 C216.78786327 617.88506637 190.90725546 617.87505406 165.02664584 617.86034727 C164.10607916 617.85982713 163.18551247 617.85930699 162.23704983 617.85877108 C161.31816396 617.85825174 160.39927809 617.8577324 159.45254719 617.85719731 C158.53534355 617.85667957 157.6181399 617.85616183 156.67314221 617.8556284 C154.82598845 617.85458032 152.97883469 617.85352011 151.13168094 617.85244768 C138.25265066 617.84506611 125.37362917 617.84297904 112.49459704 617.84444169 C95.9000505 617.84628692 79.30555815 617.83822859 62.71102933 617.81280023 C53.93456164 617.79963167 45.15818048 617.79462647 36.38170503 617.80143877 C30.52048033 617.80514849 24.65933463 617.79795031 18.79813104 617.78184638 C15.457979 617.77296665 12.11815253 617.7704234 8.77797446 617.77777356 C5.17869618 617.78493014 1.57992685 617.77371441 -2.01931286 617.75784016 C-3.05431625 617.76429196 -4.08931964 617.77074376 -5.15568677 617.77739108 C-16.62528141 617.68213884 -24.30718344 614.21486273 -32.53348541 606.37082386 C-40.79032271 597.72743051 -44.58510341 588.23044458 -44.5689373 576.38708305 C-44.57158913 575.45185766 -44.57424096 574.51663226 -44.57697314 573.5530667 C-44.58469016 570.3896124 -44.58522623 567.22619675 -44.58582306 564.06273365 C-44.58983611 561.78355663 -44.59427407 559.50438032 -44.59910262 557.22520489 C-44.61109172 550.93867893 -44.61672198 544.65216066 -44.62128377 538.3656255 C-44.62662092 532.28911825 -44.63659893 526.21262006 -44.64629323 520.13611849 C-44.67193304 503.84992386 -44.68696137 487.5637245 -44.6998037 471.27751547 C-44.70405788 465.88299785 -44.7086236 460.48848058 -44.71338701 455.09396338 C-44.73864862 426.4133756 -44.76069761 397.73278725 -44.77311516 369.05219078 C-44.77603651 362.405879 -44.77900402 355.75956724 -44.78202057 349.1132555 C-44.78239148 348.28753042 -44.78276239 347.46180533 -44.78314454 346.61105828 C-44.79529741 319.84495012 -44.82623632 293.07890777 -44.86794209 266.31283051 C-44.91073722 238.7974316 -44.93735719 211.28206744 -44.94258987 183.76663435 C-44.94333031 179.87951394 -44.94424099 175.99239359 -44.94524765 172.10527325 C-44.94543826 171.34025646 -44.94562888 170.57523967 -44.94582527 169.78704055 C-44.9493377 157.47947697 -44.96963047 145.17199582 -44.99604429 132.86446249 C-45.02220167 120.48966541 -45.02991098 108.11496348 -45.018943 95.74014271 C-45.01349585 89.03692318 -45.01667646 82.33399737 -45.04140854 75.63079929 C-45.06386812 69.49229066 -45.06318603 63.35423259 -45.04420467 57.21571624 C-45.0414001 54.99689297 -45.04702842 52.77803937 -45.0620176 50.55926497 C-45.15558706 35.804541 -44.38800318 24.22096162 -34.50614166 12.40988636 C-24.73359971 2.82138474 -13.30141859 -0.09515806 0 0 Z " fill="#353C44" transform="translate(46.431922912597656,1.625269889831543)"/>
<path d="M0 0 C1.11442724 -0.00406073 2.22885448 -0.00812145 3.37705225 -0.01230523 C7.10805128 -0.02224395 10.83867346 -0.01082692 14.569664 0.00050831 C17.27292242 -0.00223252 19.97615554 -0.00616071 22.6794076 -0.01153535 C28.55511533 -0.02081751 34.43073746 -0.01898373 40.30644417 -0.00980282 C49.04387204 0.00381202 57.78123431 0.00022663 66.51866697 -0.00676142 C82.12446196 -0.01868403 97.73021655 -0.0136058 113.33600931 -0.00148315 C126.99290237 0.00905336 140.64978167 0.0135923 154.30667877 0.01222134 C155.21259727 0.01213731 156.11851577 0.01205328 157.05188634 0.0119667 C160.72931128 0.01161445 164.40673621 0.01123044 168.08416114 0.01080112 C202.58073392 0.00683612 237.07728235 0.01955369 271.57384817 0.04032768 C302.22150744 0.0586971 332.86914337 0.06450993 363.51680756 0.05905628 C365.48468719 0.05870985 367.45256682 0.05836375 369.42044646 0.05801799 C370.39332911 0.057847 371.36621176 0.057676 372.3685757 0.05749982 C377.26595028 0.05664628 382.16332487 0.05582249 387.06069946 0.05503082 C388.0268787 0.05487374 388.99305793 0.05471666 389.98851532 0.05455482 C415.5981147 0.05056473 441.20771184 0.05604041 466.81730986 0.06454211 C469.57296252 0.06544915 472.32861518 0.0663548 475.08426784 0.06725735 C476.9122909 0.06785846 478.74031396 0.06846708 480.56833701 0.06908325 C493.31227428 0.07330459 506.05620713 0.0738829 518.80014487 0.07197776 C535.2232428 0.06953484 551.64631707 0.07360614 568.06940854 0.08918776 C576.75454862 0.09723798 585.43964931 0.09983955 594.12479174 0.09454541 C599.92647758 0.09156816 605.72812862 0.09587109 611.52980614 0.10609398 C614.83510933 0.1117192 618.14031645 0.11313042 621.44562274 0.1079274 C625.00921408 0.10282638 628.57257869 0.11000124 632.13615417 0.12025452 C633.66873065 0.11365979 633.66873065 0.11365979 635.23226827 0.10693184 C647.43023119 0.17389173 658.45757572 2.4458204 667.75557709 10.81223011 C676.20086386 19.80680382 679.73687981 30.74926783 679.68160248 42.83688831 C679.6817485 43.67642551 679.68189453 44.51596272 679.68204498 45.38094044 C679.68135034 48.14582403 679.67357897 50.91063959 679.66573334 53.67551136 C679.66386756 55.59650606 679.66244441 57.51750124 679.66144562 59.43849659 C679.65763299 64.48713978 679.64781342 69.53575407 679.63674164 74.58438587 C679.62650054 79.73910602 679.62194221 84.89383084 679.61690521 90.04855824 C679.60619002 100.15729487 679.58912867 110.26601008 679.56807709 120.37473011 C678.15735183 120.37733448 678.15735183 120.37733448 676.71812707 120.37999147 C619.66134324 120.48537614 562.60456584 120.59388626 505.54779454 120.70584705 C498.53787249 120.71960169 491.52795039 120.73333008 484.51802826 120.74704456 C483.82102976 120.74840865 483.12403127 120.74977273 482.40591161 120.75117815 C461.77735344 120.79153866 441.14879308 120.83051924 420.52023015 120.86836609 C388.43118382 120.92726302 356.34214317 120.98867171 324.25310972 121.05421997 C322.91365108 121.05695581 321.57419244 121.05968888 320.2347338 121.06241917 C251.84820018 121.20182899 183.46202602 121.38868707 -44.43192291 122.37473011 C-44.54817385 110.71716002 -44.63681886 99.05972961 -44.69098377 87.40169621 C-44.71699059 81.98738738 -44.75222483 76.57347742 -44.80912018 71.15939808 C-44.86375903 65.92683249 -44.89341038 60.69464868 -44.90630913 55.46181965 C-44.91549206 53.47325863 -44.93342329 51.48471665 -44.9605732 49.49631977 C-45.1468429 35.27881892 -44.01668845 23.77715595 -34.50614166 12.40988636 C-24.73359971 2.82138474 -13.30141859 -0.09515806 0 0 Z " fill="#353D44" transform="translate(46.431922912597656,1.625269889831543)"/>
<path d="M0 0 C4.87157554 3.23421516 8.76076517 7.63294347 12.7902832 11.83300781 C18.16103468 17.36172257 23.48714576 22.80553141 29.35180664 27.8112793 C32.96226766 30.9947601 36.29489834 34.46188872 39.6652832 37.89550781 C41.06661067 39.32226772 42.47014671 40.74686288 43.8762207 42.16894531 C44.4851416 42.78946777 45.0940625 43.40999023 45.72143555 44.04931641 C47.24151782 45.61512743 47.24151782 45.61512743 49.2902832 46.52050781 C49.2902832 47.18050781 49.2902832 47.84050781 49.2902832 48.52050781 C49.88105652 48.78563675 50.47182983 49.05076569 51.08050537 49.32392883 C53.3598815 50.55819479 54.83215343 51.82673627 56.64672852 53.66577148 C57.28128967 54.3037114 57.91585083 54.94165131 58.56964111 55.59892273 C59.24573425 56.28847549 59.92182739 56.97802826 60.6184082 57.68847656 C61.32624451 58.40151443 62.03408081 59.11455231 62.7633667 59.84919739 C65.02714092 62.13076975 67.28413991 64.41889123 69.5402832 66.70800781 C71.78294827 68.97844656 74.02710479 71.2473571 76.27435303 73.51325989 C77.67080721 74.92179813 79.06458287 76.33299908 80.45513916 77.74736023 C84.28672663 81.61761417 88.23502465 85.26524975 92.35861206 88.8216095 C95.40987575 91.50518571 98.28609346 94.35398218 101.16137695 97.22363281 C101.76917496 97.82810242 102.37697296 98.43257202 103.00318909 99.05535889 C104.27067497 100.31783236 105.53685674 101.58161643 106.80175781 102.84667969 C108.74241224 104.78512016 110.69096814 106.71538643 112.63989258 108.64550781 C113.87670848 109.87939408 115.11305406 111.11375199 116.34887695 112.34863281 C116.93108505 112.9236554 117.51329315 113.49867798 118.11314392 114.09112549 C122.47069452 118.4737499 123.36041855 121.14594954 123.71606445 127.29003906 C122.62928754 132.98315479 117.82689836 137.35348845 113.9777832 141.45800781 C113.49140381 141.98160889 113.00502441 142.50520996 112.50390625 143.04467773 C107.84972454 148.03400377 103.20228016 152.92983821 97.98022461 157.32666016 C92.02726161 162.51883941 86.52537156 168.17503151 80.96049118 173.77513504 C78.90232036 175.84619868 76.84092876 177.91400899 74.77871704 179.98104858 C70.40474143 184.36638539 66.03472445 188.75565367 61.6652832 193.14550781 C56.59119986 198.24325434 51.51547325 203.33934216 46.43550491 208.43122482 C44.41166843 210.46150964 42.39088373 212.49479812 40.37020874 214.52822876 C39.12285009 215.77922174 37.8753498 217.03007353 36.62768555 218.28076172 C36.07272903 218.84088455 35.51777252 219.40100739 34.94599915 219.97810364 C31.54575397 223.37880385 28.01088636 226.4737396 24.2902832 229.52050781 C20.09115515 233.55115233 16.23132867 237.86257923 12.39575195 242.23535156 C7.33386919 247.86758732 3.23666938 250.052145 -4.2175293 250.58300781 C-10.58582206 250.42330141 -15.35056384 246.87966077 -19.7097168 242.52050781 C-22.5276654 237.54213195 -23.45545876 233.15432949 -22.7097168 227.52050781 C-21.57317454 223.51032553 -20.15955113 219.62166813 -18.69281006 215.72131348 C-17.4187489 212.33095941 -16.18783558 208.92490616 -14.9519043 205.52050781 C-14.69039581 204.80332581 -14.42888733 204.0861438 -14.15945435 203.347229 C-10.96500109 194.54564387 -8.02578483 185.65925854 -5.0847168 176.77050781 C-4.5590197 175.18488952 -4.033304 173.59927739 -3.50756836 172.01367188 C-2.58677236 169.23427869 -1.66752953 166.45438184 -0.75024414 163.67382812 C-0.07309319 161.62172075 0.60693277 159.5705591 1.2902832 157.52050781 C0.70177125 157.52164697 0.11325931 157.52278613 -0.49308634 157.52395982 C-35.42400734 157.59118993 -70.35491716 157.64261585 -105.28588948 157.6737038 C-109.48624739 157.67745563 -113.68660517 157.68133862 -117.88696289 157.68530273 C-118.72312867 157.68608967 -119.55929446 157.6868766 -120.4207986 157.68768737 C-133.93475009 157.70071793 -147.44866303 157.72435874 -160.96259171 157.7519662 C-174.84373889 157.78008595 -188.72486598 157.79669792 -202.60604048 157.8027733 C-211.16169857 157.80687615 -219.71724769 157.81980362 -228.27287221 157.84425721 C-234.1510621 157.86019564 -240.0291962 157.86488997 -245.90740609 157.86101194 C-249.29170016 157.85910289 -252.67565295 157.86356704 -256.05993843 157.87812424 C-280.788062 157.97922334 -303.13435133 156.72390817 -321.7097168 138.52050781 C-332.64781362 126.52790891 -336.8508531 111.81501853 -336.82324219 95.91113281 C-336.82338821 95.19795395 -336.82353424 94.48477509 -336.82368469 93.74998474 C-336.82299533 91.42346005 -336.81524932 89.09701829 -336.80737305 86.77050781 C-336.80550539 85.14526412 -336.80408313 83.52001985 -336.80308533 81.89477539 C-336.79928752 77.64022232 -336.78948093 73.385704 -336.77838135 69.13116455 C-336.76810807 64.78048167 -336.76357509 60.42979311 -336.75854492 56.07910156 C-336.74785593 47.55955446 -336.73081279 39.04003547 -336.7097168 30.52050781 C-326.15161103 39.54444637 -316.15626318 48.95789745 -306.3972168 58.83300781 C-304.11241901 61.14456191 -301.82419871 63.45265135 -299.53393555 65.75878906 C-299.02239426 66.27862869 -298.51085297 66.79846832 -297.98381042 67.33406067 C-295.73598671 69.59710326 -293.49997814 71.68208828 -290.97070312 73.63061523 C-288.06267621 76.06135018 -286.90372179 77.89872992 -286.4543457 81.65527344 C-286.44838379 82.40486328 -286.44242188 83.15445313 -286.4362793 83.92675781 C-286.4156543 84.75304687 -286.3950293 85.57933594 -286.3737793 86.43066406 C-286.34773914 88.15712642 -286.32950885 89.88372426 -286.3190918 91.61035156 C-286.29588867 92.43664062 -286.27268555 93.26292969 -286.2487793 94.11425781 C-286.24056152 94.86384766 -286.23234375 95.6134375 -286.22387695 96.38574219 C-285.43834013 99.64724931 -284.47721664 100.54996515 -281.7097168 102.52050781 C-277.98936727 103.14327044 -274.28733072 103.06639998 -270.52288818 103.03948975 C-269.36790872 103.046991 -268.21292925 103.05449225 -267.02295041 103.06222081 C-263.8165565 103.07902602 -260.61073947 103.07792007 -257.40433121 103.06931329 C-253.94692219 103.06437537 -250.48962511 103.08244467 -247.03225708 103.09773254 C-241.04199425 103.1210655 -235.05185254 103.12979218 -229.06154633 103.12862396 C-220.40057872 103.126956 -211.73977279 103.14727638 -203.07884827 103.17297927 C-189.02742691 103.2140816 -174.97603458 103.23737858 -160.92456055 103.24951172 C-147.27414152 103.26133661 -133.62377718 103.28152637 -119.97338867 103.31298828 C-119.13210681 103.31492438 -118.29082495 103.31686048 -117.42404971 103.31885526 C-113.20362382 103.3286197 -108.98319834 103.33854883 -104.76277304 103.34855986 C-69.74511246 103.43141008 -34.72745653 103.48537806 0.2902832 103.52050781 C-0.05275565 102.52250247 -0.39579451 101.52449713 -0.74922848 100.4962492 C-2.04089488 96.73771866 -3.33152999 92.97883462 -4.62187862 89.21985149 C-5.17690588 87.60342297 -5.73220028 85.98708614 -6.28778362 84.37084866 C-10.57515021 71.89769851 -14.74819542 59.39384021 -18.7722168 46.83300781 C-19.58658829 44.29683623 -20.40198461 41.76100709 -21.21958923 39.22587585 C-21.7135572 37.69380615 -22.20574415 36.16116025 -22.6955719 34.62776184 C-23.83128975 31.10091488 -25.03298508 27.61881161 -26.35229492 24.15600586 C-28.28451761 18.98105478 -28.72681084 14.61006768 -26.9831543 9.31347656 C-24.56745585 4.0205438 -21.53873815 1.04970854 -16.3972168 -1.72949219 C-10.22803861 -3.45112331 -5.65230641 -2.95632873 0 0 Z " fill="#2187F7" transform="translate(489.709716796875,329.4794921875)"/>
<path d="M0 0 C4.42984516 2.80357317 7.69681137 6.34043412 9.375 11.375 C10.12938852 19.04887555 7.66934962 25.26135355 5.0703125 32.4140625 C4.63113495 33.65368744 4.1919574 34.89331238 3.73947144 36.17050171 C2.57744442 39.45022194 1.40059729 42.72442426 0.22033691 45.99761963 C-0.97515058 49.32081555 -2.15708364 52.64882014 -3.33984375 55.9765625 C-5.4236663 61.8362374 -7.51969841 67.69144859 -9.62521362 73.54336548 C-10.66068952 76.47608126 -11.6447927 79.42341794 -12.625 82.375 C-11.97512493 82.37348112 -11.32524986 82.37196224 -10.65568161 82.37039733 C27.90767522 82.28077934 66.47101855 82.21220045 105.03445852 82.17073868 C109.67043346 82.16573618 114.30640819 82.16055886 118.94238281 82.15527344 C119.86527642 82.1542242 120.78817004 82.15317495 121.73903012 82.15209392 C136.65946356 82.13471444 151.57983501 82.10319037 166.50023174 82.06638882 C181.82327329 82.02891087 197.14628249 82.00674969 212.46936798 81.99864602 C221.91562946 81.99317243 231.36171569 81.97591877 240.8079232 81.94333413 C247.29583911 81.92210152 253.78366515 81.91581963 260.27161324 81.92099449 C264.00830708 81.92354275 267.74469585 81.91978778 271.48133469 81.8981781 C294.39495741 81.77234978 314.50468278 82.2822004 332.0859375 98.88671875 C346.25039746 114.28392181 347.68592459 131.10321299 347.5703125 150.9453125 C347.56657659 152.8367396 347.56373235 154.72816865 347.56173706 156.61959839 C347.55414606 161.56792663 347.5345371 166.51613516 347.5123291 171.4644165 C347.4917724 176.52574037 347.48271444 181.58708381 347.47265625 186.6484375 C347.45128645 196.55734391 347.41720599 206.46616195 347.375 216.375 C343.34748591 214.52735372 340.66170318 211.84759937 337.625 208.6875 C333.63221453 204.60744053 329.58406107 200.71825033 325.234375 197.015625 C322.48279595 194.58776113 319.94853926 191.95750081 317.375 189.34375 C315.43608998 187.43513545 313.43800449 185.64789448 311.375 183.875 C300.39673913 174.41847826 300.39673913 174.41847826 298.375 170.375 C298.24411519 168.25635964 298.17221127 166.13395637 298.12890625 164.01171875 C298.09603516 162.73232422 298.06316406 161.45292969 298.02929688 160.13476562 C297.98199339 158.10071558 297.93758113 156.06668998 297.89819336 154.0324707 C297.85826787 152.06703709 297.80621794 150.1018617 297.75390625 148.13671875 C297.7288501 146.96069092 297.70379395 145.78466309 297.67797852 144.57299805 C297.48918475 140.97856732 297.48918475 140.97856732 295.375 136.375 C194.065 136.045 92.755 135.715 -11.625 135.375 C-1.54462338 166.63664141 -1.54462338 166.63664141 9.1171875 197.66015625 C11.00436445 203.75592163 11.73695528 210.44981472 8.6875 216.25 C5.56024022 220.47602673 2.21347123 223.3299627 -2.625 225.375 C-9.76585056 226.32859184 -15.8298847 225.75018094 -21.625 221.375 C-23.13485422 219.79393303 -24.60313866 218.17291314 -26.046875 216.53125 C-31.38002427 210.58667177 -36.98357805 204.93231651 -42.640625 199.296875 C-43.54639282 198.39434998 -44.45216064 197.49182495 -45.38537598 196.56195068 C-48.21336734 193.74773421 -51.04365707 190.93584342 -53.875 188.125 C-57.63332163 184.39374185 -61.38789022 180.65875446 -65.140625 176.921875 C-65.98868713 176.08211121 -66.83674927 175.24234741 -67.71051025 174.37713623 C-71.95109759 170.15395314 -76.00697306 165.85634257 -79.90808105 161.31900024 C-82.97843295 157.84256075 -86.27955163 154.59824421 -89.5703125 151.33203125 C-90.30321503 150.60054367 -91.03611755 149.86905609 -91.79122925 149.11540222 C-94.10845622 146.80371634 -96.42914855 144.49554642 -98.75 142.1875 C-100.31403526 140.6284891 -101.87783936 139.06924626 -103.44140625 137.50976562 C-106.30863253 134.65066326 -109.17716232 131.79288363 -112.04736328 128.93676758 C-112.97116791 128.01657333 -112.97116791 128.01657333 -113.91363525 127.07778931 C-114.98956844 126.00724749 -116.06695385 124.93816123 -117.14642334 123.8711853 C-122.14033637 118.92169644 -122.14033637 118.92169644 -123.625 115.375 C-123.5566462 109.35672306 -122.52156025 106.47550839 -118.26974487 102.25231934 C-117.66252594 101.68436646 -117.05530701 101.11641357 -116.4296875 100.53125 C-115.80401886 99.91785767 -115.17835022 99.30446533 -114.53372192 98.67248535 C-112.53841996 96.72274191 -110.52055242 94.79853115 -108.5 92.875 C-106.51085817 90.95103636 -104.52668712 89.02205917 -102.54322815 87.09223938 C-101.26399897 85.84791347 -99.98287218 84.60553528 -98.69981384 83.36515808 C-95.05374244 79.82703765 -91.61284256 76.21320487 -88.33886719 72.32470703 C-83.95842054 67.34148097 -79.08606527 62.78973342 -74.36352539 58.1340332 C-72.9629919 56.75154966 -71.5654363 55.36605139 -70.16796875 53.98046875 C-69.34321045 53.16731201 -68.51845215 52.35415527 -67.66870117 51.51635742 C-65.48377021 49.35077525 -65.48377021 49.35077525 -63.625 46.375 C-62.965 46.375 -62.305 46.375 -61.625 46.375 C-61.25592529 45.51805542 -61.25592529 45.51805542 -60.87939453 44.64379883 C-59.41494496 41.99507757 -57.7006157 40.20814406 -55.5546875 38.07421875 C-54.74 37.26146484 -53.9253125 36.44871094 -53.0859375 35.61132812 C-52.23257813 34.77021484 -51.37921875 33.92910156 -50.5 33.0625 C-49.25476563 31.81823242 -49.25476563 31.81823242 -47.984375 30.54882812 C-43.62812599 26.22330501 -39.18666972 22.07995042 -34.53222656 18.0793457 C-30.52468301 14.49810383 -26.86559846 10.53856867 -23.18164062 6.62890625 C-16.5632355 -0.17583562 -9.4634135 -4.24221985 0 0 Z " fill="#2187F7" transform="translate(224.625,154.625)"/>
<path d="M0 0 C1.52938698 0.00002842 3.05877395 0.00005657 4.58816093 0.00008446 C41.95940937 0.00089861 79.330654 0.01045983 116.70189981 0.02392192 C140.88516933 0.03263288 165.06843821 0.03880879 189.25170898 0.04272461 C190.05868209 0.04285614 190.8656552 0.04298766 191.69708204 0.04312317 C199.80771325 0.04444272 207.91834447 0.04571838 216.0289757 0.04696203 C232.52260799 0.0494921 249.01624022 0.05231332 265.50987244 0.05531311 C266.64513896 0.05551905 266.64513896 0.05551905 267.80334016 0.05572914 C317.56550937 0.06478901 367.32767667 0.08069572 417.08984375 0.09765625 C417.08984375 8.01765625 417.08984375 15.93765625 417.08984375 24.09765625 C413.65273971 24.10400416 413.65273971 24.10400416 410.14619923 24.11048031 C354.45398039 24.21342615 298.76176796 24.31949005 243.0695612 24.42877319 C236.05963915 24.44252783 229.04971705 24.45625622 222.03979492 24.4699707 C221.34279643 24.47133479 220.64579793 24.47269887 219.92767827 24.47410429 C199.2991201 24.5144648 178.67055974 24.55344538 158.04199681 24.59129223 C125.95295048 24.65018916 93.86390983 24.71159785 61.77487638 24.77714611 C60.43541774 24.77988195 59.09595911 24.78261502 57.75650046 24.78534531 C-10.63003316 24.92475513 -79.01620731 25.11161321 -306.91015625 26.09765625 C-306.91015625 17.84765625 -306.91015625 9.59765625 -306.91015625 1.09765625 C-216.76815854 0.34961439 -126.62716881 0.01979032 0 0 Z " fill="#65717C" transform="translate(308.91015625,97.90234375)"/>
<path d="M0 0 C4.19257001 2.17139619 6.41865552 5.12798328 9 9 C9.77901124 14.87799393 9.45823253 20.04320005 6 25 C2.35447237 28.57747778 -0.49954786 30.89827443 -5.6875 31.25 C-11.44188192 31.15617856 -15.53391323 29.27485806 -19.875 25.5 C-23.51815432 21.21393609 -23.33835267 17.1338085 -23.28125 11.73046875 C-22.88511371 7.88464557 -21.60507679 5.81629923 -19 3 C-13.18811241 -1.25385071 -6.92859021 -1.003451 0 0 Z " fill="#7B8897" transform="translate(128,37)"/>
<path d="M0 0 C3.46236126 2.39067801 5.74528805 5.0530761 7.625 8.8125 C8.21990278 14.53271903 7.83228341 18.88702904 4.625 23.8125 C1.95440055 27.01721934 -0.34763969 28.6885855 -4.375 29.8125 C-9.64474477 30.29156771 -12.89609159 29.63615965 -17.375 26.8125 C-22.00998329 22.58951523 -23.5601032 20.40671189 -23.875 14.1875 C-23.85344539 8.21687346 -22.33200666 5.42305392 -18.19921875 1.23828125 C-13.17813985 -2.6861166 -5.69824401 -2.00493771 0 0 Z " fill="#7B8997" transform="translate(186.375,38.1875)"/>
<path d="M0 0 C4.2402989 3.33166342 6.67152527 6.53386663 8.109375 11.8359375 C8.48233143 16.95726608 7.62678804 20.71669231 4.421875 24.7734375 C0.56552217 28.73997184 -2.95343358 29.62838128 -8.390625 30.2109375 C-13.77706041 29.63381942 -16.64080225 27.22087622 -20.203125 23.2734375 C-23.48333612 18.53535477 -23.88876652 13.42058057 -22.890625 7.8359375 C-20.3009534 3.18682379 -17.22925635 0.43354078 -12.390625 -1.7265625 C-7.75059911 -2.30656574 -4.10987006 -2.53045718 0 0 Z " fill="#7B8897" transform="translate(72.890625,38.1640625)"/>
<path d="M0 0 C3.78583996 1.56751867 6.16557849 3.93577091 9.02734375 6.83203125 C9.49813858 7.30565598 9.96893341 7.7792807 10.45399475 8.26725769 C11.9532789 9.77768755 13.4454658 11.29491149 14.9375 12.8125 C15.9363829 13.82142518 16.93572751 14.82989345 17.93554688 15.83789062 C19.78537161 17.70398404 21.63187321 19.57314888 23.47631836 21.44458008 C25.22232209 23.21254187 27.00760994 24.94224298 28.82250977 26.6394043 C31 29 31 29 31 32 C26.58165052 27.60691362 22.16715378 23.20998376 17.75537109 18.81030273 C16.25268527 17.31265948 14.74910507 15.81591309 13.24462891 14.32006836 C11.08783449 12.17534291 8.93423049 10.0274594 6.78125 7.87890625 C6.10316284 7.20598038 5.42507568 6.5330545 4.72644043 5.83973694 C3.79547546 4.90888527 3.79547546 4.90888527 2.84570312 3.95922852 C2.29499146 3.41073746 1.74427979 2.8622464 1.17687988 2.2971344 C0 1 0 1 0 0 Z " fill="#1D95FA" transform="translate(108,278)"/>
<path d="M0 0 C0 3 0 3 -2.3125 5.4375 C-3.199375 6.283125 -4.08625 7.12875 -5 8 C-5.556875 8.763125 -6.11375 9.52625 -6.6875 10.3125 C-7.3371875 11.1478125 -7.3371875 11.1478125 -8 12 C-8.66 12 -9.32 12 -10 12 C-8.52278578 8.54798361 -6.56205999 6.35038064 -3.875 3.75 C-3.15054688 3.04359375 -2.42609375 2.3371875 -1.6796875 1.609375 C-1.12539062 1.07828125 -0.57109375 0.5471875 0 0 Z " fill="#1F8AE8" transform="translate(173,189)"/>
<path d="M0 0 C3.83132316 1.56090944 6.1075134 4.1075134 9 7 C9.99 7.33 10.98 7.66 12 8 C12 8.99 12 9.98 12 11 C8.57472113 9.52651292 6.35044942 7.59092154 3.75 4.9375 C3.04359375 4.22464844 2.3371875 3.51179688 1.609375 2.77734375 C0 1 0 1 0 0 Z " fill="#1E90F1" transform="translate(559,359)"/>
<path d="M0 0 C1.10191901 4.40767604 0.58706842 5.8922935 -1 10 C-1.66 9.67 -2.32 9.34 -3 9 C-2.01 6.03 -1.02 3.06 0 0 Z " fill="#2091F1" transform="translate(490,492)"/>
<path d="M0 0 C0.99 0.33 1.98 0.66 3 1 C0.69 3.31 -1.62 5.62 -4 8 C-4.66 7.67 -5.32 7.34 -6 7 C-4.02 4.69 -2.04 2.38 0 0 Z " fill="#37312C" transform="translate(506,566)"/>
</svg>
